# xmcd
#
# Track frame offsets:
#	150
#	18105
#	32675
#	47240
#	68792
#	83905
#	98672
#	111390
#
# Disc length: 1661 seconds
#
# Revision: 0
# Processed by: cddbd v1.5.1PL0 Copyright (c) Steve Scherf et al.
# Submitted via: EasyCDDAExtractor 8.2.1.1
#
DISCID=5e067b08
DTITLE=Various Artist - Dreamworks 2002
DYEAR=2002
DGENRE=Country
TTITLE0=Darryl Worley - I Miss My Friend
TTITLE1=Eric Heatherly - The Last Man Committed
TTITLE2=Eric Heatherly - Built For Love
TTITLE3=Joanna Janet - All That I Remember
TTITLE4=Joanna Janet - Since I've Seen You Last
TTITLE5=Toby Keith - Courtesy Of The Red White And Blue (The Angry American)
TTITLE6=Emerson Drive - Fall Into Me
TTITLE7=Emerson Drive - I Should Be Sleeping
EXTD=
EXTT0=
EXTT1=
EXTT2=
EXTT3=
EXTT4=
EXTT5=
EXTT6=
EXTT7=
PLAYORDER=
